<svg id="Layer_1" data-name="Layer 1" xmlns="http://www.w3.org/2000/svg" xmlns:xlink="http://www.w3.org/1999/xlink" viewBox="0 0 363.72 387.81"><defs><style>.cls-1{fill:url(#linear-gradient);}</style><linearGradient id="linear-gradient" x1="181.86" y1="387.81" x2="181.86" gradientUnits="userSpaceOnUse"><stop offset="0" stop-color="#09092b"/><stop offset="0.22" stop-color="#0c0c35"/><stop offset="0.62" stop-color="#111042"/><stop offset="1" stop-color="#121146"/></linearGradient></defs><title>PokemonGO-Team-Logos</title><path class="cls-1" d="M126.26,11.93A114.08,114.08,0,0,1,214,53L168.64,76.64A65.23,65.23,0,0,0,61,126.26q0,3.1.29,6.19L15.86,156.08A114.28,114.28,0,0,1,126.26,11.93m0-11.93A126.32,126.32,0,0,0,9,173.11L74.49,139a53.32,53.32,0,0,1,92-47.82l65.49-34.05A126.14,126.14,0,0,0,126.26,0h0ZM336.43,41.6L180.71,354.49,149.06,238.77l-10.13,1.12a116.2,116.2,0,0,1-12.67.7A114.1,114.1,0,0,1,38.87,200L84,176a65.26,65.26,0,0,0,107.12-57L336.43,41.6m27.28-28-185.93,99a53.32,53.32,0,0,1-91.69,48.8L21,196h0a126.14,126.14,0,0,0,105.26,56.53,127.6,127.6,0,0,0,14-.77l37.21,136.06L363.72,13.56h0Zm-237.46,82a30.68,30.68,0,1,1-30.68,30.68,30.72,30.72,0,0,1,30.68-30.68m0-11.93a42.62,42.62,0,1,0,42.62,42.62,42.62,42.62,0,0,0-42.62-42.62h0Z"/></svg>