<?xml version="1.0" encoding="UTF-8" standalone="no"?>
<!-- Created with Inkscape (http://www.inkscape.org/) -->

<svg
   xmlns:dc="http://purl.org/dc/elements/1.1/"
   xmlns:cc="http://creativecommons.org/ns#"
   xmlns:rdf="http://www.w3.org/1999/02/22-rdf-syntax-ns#"
   xmlns:svg="http://www.w3.org/2000/svg"
   xmlns="http://www.w3.org/2000/svg"
   xmlns:sodipodi="http://sodipodi.sourceforge.net/DTD/sodipodi-0.dtd"
   xmlns:inkscape="http://www.inkscape.org/namespaces/inkscape"
   width="70mm"
   height="70mm"
   viewBox="0 0 70 70"
   version="1.1"
   id="svg872"
   inkscape:version="0.92.3 (2405546, 2018-03-11)"
   sodipodi:docname="item-upgrade-fg.svg">
  <defs
     id="defs866" />
  <sodipodi:namedview
     id="base"
     pagecolor="#ffffff"
     bordercolor="#666666"
     borderopacity="1.0"
     inkscape:pageopacity="0.0"
     inkscape:pageshadow="2"
     inkscape:zoom="2.5600001"
     inkscape:cx="-96.415122"
     inkscape:cy="200.13575"
     inkscape:document-units="mm"
     inkscape:current-layer="layer1"
     showgrid="false"
     inkscape:window-width="2560"
     inkscape:window-height="1387"
     inkscape:window-x="-8"
     inkscape:window-y="-8"
     inkscape:window-maximized="1" />
  <metadata
     id="metadata869">
    <rdf:RDF>
      <cc:Work
         rdf:about="">
        <dc:format>image/svg+xml</dc:format>
        <dc:type
           rdf:resource="http://purl.org/dc/dcmitype/StillImage" />
        <dc:title></dc:title>
      </cc:Work>
    </rdf:RDF>
  </metadata>
  <g
     inkscape:label="Layer 1"
     inkscape:groupmode="layer"
     id="layer1"
     transform="translate(0,-227)">
    <path
       inkscape:connector-curvature="0"
       style="color:#000000;font-style:normal;font-variant:normal;font-weight:normal;font-stretch:normal;font-size:medium;line-height:normal;font-family:sans-serif;font-variant-ligatures:normal;font-variant-position:normal;font-variant-caps:normal;font-variant-numeric:normal;font-variant-alternates:normal;font-feature-settings:normal;text-indent:0;text-align:start;text-decoration:none;text-decoration-line:none;text-decoration-style:solid;text-decoration-color:#000000;letter-spacing:normal;word-spacing:normal;text-transform:none;writing-mode:lr-tb;direction:ltr;text-orientation:mixed;dominant-baseline:auto;baseline-shift:baseline;text-anchor:start;white-space:normal;shape-padding:0;clip-rule:nonzero;display:inline;overflow:visible;visibility:visible;opacity:1;isolation:auto;mix-blend-mode:normal;color-interpolation:sRGB;color-interpolation-filters:linearRGB;solid-color:#000000;solid-opacity:1;vector-effect:none;fill:#ffff57;fill-opacity:1;fill-rule:nonzero;stroke:none;stroke-width:0.33978385px;stroke-linecap:butt;stroke-linejoin:miter;stroke-miterlimit:4;stroke-dasharray:none;stroke-dashoffset:0;stroke-opacity:1;color-rendering:auto;image-rendering:auto;shape-rendering:auto;text-rendering:auto;enable-background:accumulate"
       d="m 37.042401,259.65614 -21.411429,9.004 4.690423,3.12527 -0.09782,4.29412 0.240792,-0.0953 22.406172,-9.07234 -0.06521,-1.95141 0.58693,-0.23077 -0.01757,-2.51074 -2.022266,-1.68509 -2.251787,1.01538 z"
       id="path840"
       sodipodi:nodetypes="cccccccccccc" />
    <path
       inkscape:connector-curvature="0"
       style="color:#000000;font-style:normal;font-variant:normal;font-weight:normal;font-stretch:normal;font-size:medium;line-height:normal;font-family:sans-serif;font-variant-ligatures:normal;font-variant-position:normal;font-variant-caps:normal;font-variant-numeric:normal;font-variant-alternates:normal;font-feature-settings:normal;text-indent:0;text-align:start;text-decoration:none;text-decoration-line:none;text-decoration-style:solid;text-decoration-color:#000000;letter-spacing:normal;word-spacing:normal;text-transform:none;writing-mode:lr-tb;direction:ltr;text-orientation:mixed;dominant-baseline:auto;baseline-shift:baseline;text-anchor:start;white-space:normal;shape-padding:0;clip-rule:nonzero;display:inline;overflow:visible;visibility:visible;opacity:1;isolation:auto;mix-blend-mode:normal;color-interpolation:sRGB;color-interpolation-filters:linearRGB;solid-color:#000000;solid-opacity:1;vector-effect:none;fill:#ffff57;fill-opacity:1;fill-rule:nonzero;stroke:none;stroke-width:0.33978385px;stroke-linecap:butt;stroke-linejoin:miter;stroke-miterlimit:4;stroke-dasharray:none;stroke-dashoffset:0;stroke-opacity:1;color-rendering:auto;image-rendering:auto;shape-rendering:auto;text-rendering:auto;enable-background:accumulate"
       d="m 51.80993,241.39549 -50.0972214,18.02175 0.2433011,2.91208 1.5500964,-0.40633 1.7933961,0.46904 3.531612,2.74152 21.5859748,-8.09412 -0.205676,-0.18812 -2.779138,-2.53081 15.576212,-5.64608 1.229043,0.96568 10.128302,-3.953 6.012268,3.89783 2.36528,-0.0677 1.765806,1.88369 -11.485267,4.35934 1.321848,1.09359 c -0.0027,0.0737 -0.03099,0.83887 -0.06271,1.71062 -0.0332,0.91266 -0.06772,1.83553 -0.06772,1.99657 0,0.001 0.02463,0.0869 0.02508,0.0878 3.4e-4,8.2e-4 0.05676,0.0596 0.05769,0.0602 10e-4,6.2e-4 0.03628,0.0188 0.05016,0.0226 0.0139,0.004 0.023,0.006 0.03262,0.008 0.03836,0.004 0.0583,-9.1e-4 0.08026,-0.005 0.04391,-0.008 0.09098,-0.0234 0.150497,-0.0426 0.119035,-0.0387 0.285463,-0.0999 0.496632,-0.18311 0.422341,-0.16637 1.021363,-0.41658 1.740723,-0.72488 1.438719,-0.61659 3.355703,-1.46301 5.272338,-2.31762 3.833268,-1.7092 7.665202,-3.45135 7.665202,-3.45135 l 0.100336,-0.0451 v -3.20052 z"
       id="path822" />
  </g>
</svg>
