<?xml version="1.0" encoding="UTF-8" standalone="no"?>
<!-- Created with Inkscape (http://www.inkscape.org/) -->

<svg
   xmlns:dc="http://purl.org/dc/elements/1.1/"
   xmlns:cc="http://creativecommons.org/ns#"
   xmlns:rdf="http://www.w3.org/1999/02/22-rdf-syntax-ns#"
   xmlns:svg="http://www.w3.org/2000/svg"
   xmlns="http://www.w3.org/2000/svg"
   xmlns:sodipodi="http://sodipodi.sourceforge.net/DTD/sodipodi-0.dtd"
   xmlns:inkscape="http://www.inkscape.org/namespaces/inkscape"
   width="70mm"
   height="70mm"
   viewBox="0 0 70 70"
   version="1.1"
   id="svg872"
   inkscape:version="0.92.3 (2405546, 2018-03-11)"
   sodipodi:docname="item-kings-rock-fg.svg">
  <defs
     id="defs866" />
  <sodipodi:namedview
     id="base"
     pagecolor="#ffffff"
     bordercolor="#666666"
     borderopacity="1.0"
     inkscape:pageopacity="0.0"
     inkscape:pageshadow="2"
     inkscape:zoom="2.5600001"
     inkscape:cx="42.634197"
     inkscape:cy="113.23334"
     inkscape:document-units="mm"
     inkscape:current-layer="layer1"
     showgrid="false"
     inkscape:window-width="2560"
     inkscape:window-height="1387"
     inkscape:window-x="-8"
     inkscape:window-y="-8"
     inkscape:window-maximized="1" />
  <metadata
     id="metadata869">
    <rdf:RDF>
      <cc:Work
         rdf:about="">
        <dc:format>image/svg+xml</dc:format>
        <dc:type
           rdf:resource="http://purl.org/dc/dcmitype/StillImage" />
        <dc:title></dc:title>
      </cc:Work>
    </rdf:RDF>
  </metadata>
  <g
     inkscape:label="Layer 1"
     inkscape:groupmode="layer"
     id="layer1"
     transform="translate(0,-227)">
    <path
       inkscape:connector-curvature="0"
       style="color:#000000;font-style:normal;font-variant:normal;font-weight:normal;font-stretch:normal;font-size:medium;line-height:normal;font-family:sans-serif;font-variant-ligatures:normal;font-variant-position:normal;font-variant-caps:normal;font-variant-numeric:normal;font-variant-alternates:normal;font-feature-settings:normal;text-indent:0;text-align:start;text-decoration:none;text-decoration-line:none;text-decoration-style:solid;text-decoration-color:#000000;letter-spacing:normal;word-spacing:normal;text-transform:none;writing-mode:lr-tb;direction:ltr;text-orientation:mixed;dominant-baseline:auto;baseline-shift:baseline;text-anchor:start;white-space:normal;shape-padding:0;clip-rule:nonzero;display:inline;overflow:visible;visibility:visible;opacity:1;isolation:auto;mix-blend-mode:normal;color-interpolation:sRGB;color-interpolation-filters:linearRGB;solid-color:#000000;solid-opacity:1;vector-effect:none;fill:#000000;fill-opacity:1;fill-rule:nonzero;stroke:none;stroke-width:0.35752729px;stroke-linecap:butt;stroke-linejoin:miter;stroke-miterlimit:4;stroke-dasharray:none;stroke-dashoffset:0;stroke-opacity:1;color-rendering:auto;image-rendering:auto;shape-rendering:auto;text-rendering:auto;enable-background:accumulate"
       d="m 41.167926,230.80102 -3.650054,4.31514 -5.006613,6.77489 -0.936925,0.34574 -3.475863,4.48405 v 1.17974 l -0.654528,-0.26129 -0.187385,-0.87622 -5.750876,4.44445 0.704675,2.4413 1.008183,0.21906 -0.256004,0.48297 -0.873584,0.43547 0.596465,2.00845 2.713125,3.05094 -1.208766,2.51519 0.248088,1.19029 -2.08499,4.89313 -1.773561,1.41199 -1.037216,-0.88943 -1.665352,1.31434 -4.243878,-1.55713 -0.131966,-1.39352 2.480873,-3.0272 -0.02376,-0.0897 c 0,0 -0.210556,-0.77644 -0.432832,-1.59145 -0.111144,-0.40751 -0.223989,-0.82484 -0.316708,-1.15862 -0.09273,-0.33379 -0.162321,-0.57407 -0.192663,-0.66509 0.0036,0.0108 -0.02728,-0.13337 -0.05806,-0.3167 -0.03077,-0.18331 -0.06959,-0.43169 -0.113481,-0.72052 -0.08781,-0.57763 -0.195986,-1.32174 -0.300873,-2.05595 -0.209585,-1.4671 -0.408728,-2.89532 -0.409079,-2.89787 v -0.003 l -0.488257,-3.62366 0.358935,-1.95566 -1.19821,-0.94748 -1.475328,3.16179 -3.3861277,5.93826 -1.7207768,1.36449 v 2.1404 l 0.5436811,1.68119 0.08709,2.96914 -1.989977,-1.42782 -2.0612383,-0.95804 -0.6228569,-2.436 -0.3483787,0.008 -1.78939375,8.99974 1.23515775,2.46769 1.8237055,1.16389 1.3803166,0.78385 -0.438112,3.29904 0.8762241,1.4595 1.6838259,0.75744 2.1272175,0.52521 1.9108007,0.30616 4.911602,2.52837 1.427822,-0.14779 c 0.392949,0.83534 1.017151,1.37077 1.765643,1.62576 0.790598,0.26934 1.671761,0.32127 2.465038,0.38797 3.070362,1.60012 6.435986,2.81299 10.298265,3.36237 h 0.0053 l 1.282664,0.0977 5.183442,0.89733 1.404071,-0.70203 3.745063,-0.28767 2.317242,1.87385 7.600973,-0.0501 1.243076,-0.49882 2.797583,-0.24809 1.810507,-1.61521 1.401432,0.18212 0.667722,0.51465 1.327532,-0.27713 0.709952,-0.85247 1.54131,0.34838 1.921356,-2.77911 1.480607,-0.76801 0.153075,-2.2935 0.440752,-1.12694 0.245446,-1.42782 1.150706,-2.64714 -0.237531,-1.30379 -0.628135,0.0634 -3.293757,-0.79706 -2.554772,1.30114 -0.649252,-0.68356 2.509906,-3.54184 -1.282665,-1.74453 c -0.005,-0.0451 -0.09736,-0.86418 -0.187383,-1.75244 -0.04624,-0.45618 -0.08885,-0.91834 -0.118764,-1.27739 -0.01494,-0.17953 -0.02842,-0.33325 -0.03432,-0.44603 -0.0028,-0.0564 -0.0026,-0.10243 -0.0028,-0.13459 -1.58e-4,-0.0322 0.0053,-0.0635 -0.0028,-0.0316 0.01149,-0.0459 0.0099,-0.0696 0.01054,-0.10553 7.15e-4,-0.0359 0.0018,-0.0781 0,-0.12662 -0.0035,-0.0971 -0.01324,-0.21914 -0.02378,-0.36157 -0.02103,-0.2849 -0.05308,-0.64511 -0.08709,-0.99763 -0.06804,-0.70506 -0.142517,-1.38559 -0.142517,-1.38559 l -0.008,-0.0845 -0.591185,-0.36421 0.419637,-1.06626 -1.411987,-3.15915 -5.935622,10.70471 -3.143319,2.84509 -0.108211,2.18 2.251264,2.10346 -1.757726,0.70732 -4.441819,0.0474 -4.634484,-4.10664 -0.831359,-7.61944 0.04223,-0.81025 c 0.100495,-0.0407 1.812345,-0.7332 3.631577,-1.50172 0.935934,-0.39537 1.874619,-0.79878 2.583806,-1.12431 0.354592,-0.16276 0.651251,-0.30583 0.865667,-0.41964 0.107211,-0.0569 0.192113,-0.10594 0.258643,-0.15044 0.03328,-0.0223 0.06269,-0.0436 0.08974,-0.0686 0.02707,-0.025 0.06366,-0.0441 0.07917,-0.13724 0.02839,-0.17037 0.137858,-0.9921 0.242807,-1.79467 0.104954,-0.80257 0.203222,-1.5677 0.203222,-1.5677 l 0.01054,-0.0739 -3.826879,-5.05148 1.031938,-1.81315 -1.731333,-2.91898 0.443392,-0.88678 -1.068889,-1.88177 -1.828985,-10.92904 z"
       id="path820" />
  </g>
</svg>
