<?xml version="1.0" encoding="UTF-8" standalone="no"?>
<!-- Created with Inkscape (http://www.inkscape.org/) -->

<svg
   xmlns:dc="http://purl.org/dc/elements/1.1/"
   xmlns:cc="http://creativecommons.org/ns#"
   xmlns:rdf="http://www.w3.org/1999/02/22-rdf-syntax-ns#"
   xmlns:svg="http://www.w3.org/2000/svg"
   xmlns="http://www.w3.org/2000/svg"
   xmlns:sodipodi="http://sodipodi.sourceforge.net/DTD/sodipodi-0.dtd"
   xmlns:inkscape="http://www.inkscape.org/namespaces/inkscape"
   width="70mm"
   height="70mm"
   viewBox="0 0 70 70"
   version="1.1"
   id="svg872"
   inkscape:version="0.92.3 (2405546, 2018-03-11)"
   sodipodi:docname="item-metal-coat-base.svg">
  <defs
     id="defs866" />
  <sodipodi:namedview
     id="base"
     pagecolor="#ffffff"
     bordercolor="#666666"
     borderopacity="1.0"
     inkscape:pageopacity="0.0"
     inkscape:pageshadow="2"
     inkscape:zoom="3.6203868"
     inkscape:cx="60.590489"
     inkscape:cy="142.86465"
     inkscape:document-units="mm"
     inkscape:current-layer="layer1"
     showgrid="false"
     inkscape:window-width="2560"
     inkscape:window-height="1387"
     inkscape:window-x="-8"
     inkscape:window-y="-8"
     inkscape:window-maximized="1" />
  <metadata
     id="metadata869">
    <rdf:RDF>
      <cc:Work
         rdf:about="">
        <dc:format>image/svg+xml</dc:format>
        <dc:type
           rdf:resource="http://purl.org/dc/dcmitype/StillImage" />
        <dc:title></dc:title>
      </cc:Work>
    </rdf:RDF>
  </metadata>
  <g
     inkscape:label="Layer 1"
     inkscape:groupmode="layer"
     id="layer1"
     transform="translate(0,-227)">
    <path
       style="fill:none;stroke:#000000;stroke-width:0.38737926px;stroke-linecap:butt;stroke-linejoin:miter;stroke-opacity:1"
       d="m 6.0802493,239.86981 v 44.77926"
       id="path877"
       inkscape:connector-curvature="0" />
    <path
       style="fill:none;stroke:#000000;stroke-width:0.38737926px;stroke-linecap:butt;stroke-linejoin:miter;stroke-opacity:1"
       d="m 63.893681,239.84306 v 44.77926"
       id="path877-4"
       inkscape:connector-curvature="0" />
    <path
       style="fill:none;stroke:#000000;stroke-width:0.38737926px;stroke-linecap:butt;stroke-linejoin:miter;stroke-opacity:1"
       d="m 6.1671867,254.56884 c 18.5910573,11.97275 38.1013013,8.71323 57.6726883,4.44049"
       id="path894"
       inkscape:connector-curvature="0"
       sodipodi:nodetypes="cc" />
    <path
       style="fill:none;stroke:#000000;stroke-width:0.38737926px;stroke-linecap:butt;stroke-linejoin:miter;stroke-opacity:1"
       d="m 6.169257,257.71249 c 18.591057,11.97275 38.101301,8.71323 57.672688,4.44049"
       id="path894-1"
       inkscape:connector-curvature="0"
       sodipodi:nodetypes="cc" />
    <g
       id="g839"
       transform="matrix(1.4641107,0,0,1.4641107,-15.46007,-121.67647)">
      <path
         id="path849"
         d="M 130.27344,44.253906 A 75.19531,30.27344 0 0 0 55.078125,74.527344 75.19531,30.27344 0 0 0 130.27344,104.80078 75.19531,30.27344 0 0 0 205.46875,74.527344 75.19531,30.27344 0 0 0 130.27344,44.253906 Z m -0.0527,13.962891 a 8.9636381,4.705123 0 0 1 8.96485,4.705078 8.9636381,4.705123 0 0 1 -8.96485,4.705078 8.9636381,4.705123 0 0 1 -8.96289,-4.705078 8.9636381,4.705123 0 0 1 8.96289,-4.705078 z"
         style="opacity:1;vector-effect:none;fill:#000006;fill-opacity:1;fill-rule:evenodd;stroke:none;stroke-width:0.92319524;stroke-linecap:butt;stroke-linejoin:miter;stroke-miterlimit:4;stroke-dasharray:none;stroke-dashoffset:0;stroke-opacity:1"
         transform="matrix(0.26458333,0,0,0.26458333,0,227)"
         inkscape:connector-curvature="0" />
      <path
         style="color:#000000;font-style:normal;font-variant:normal;font-weight:normal;font-stretch:normal;font-size:medium;line-height:normal;font-family:sans-serif;font-variant-ligatures:normal;font-variant-position:normal;font-variant-caps:normal;font-variant-numeric:normal;font-variant-alternates:normal;font-feature-settings:normal;text-indent:0;text-align:start;text-decoration:none;text-decoration-line:none;text-decoration-style:solid;text-decoration-color:#000000;letter-spacing:normal;word-spacing:normal;text-transform:none;writing-mode:lr-tb;direction:ltr;text-orientation:mixed;dominant-baseline:auto;baseline-shift:baseline;text-anchor:start;white-space:normal;shape-padding:0;clip-rule:nonzero;display:inline;overflow:visible;visibility:visible;opacity:1;isolation:auto;mix-blend-mode:normal;color-interpolation:sRGB;color-interpolation-filters:linearRGB;solid-color:#000000;solid-opacity:1;vector-effect:none;fill:#000000;fill-opacity:1;fill-rule:evenodd;stroke:none;stroke-width:0.5;stroke-linecap:butt;stroke-linejoin:miter;stroke-miterlimit:4;stroke-dasharray:none;stroke-dashoffset:0;stroke-opacity:1;color-rendering:auto;image-rendering:auto;shape-rendering:auto;text-rendering:auto;enable-background:accumulate"
         d="m 54.275391,247.45898 -0.689453,1.08985 c -1.205606,1.90111 -4.354863,3.68175 -8.572266,4.73633 -4.724358,1.18134 -10.173739,1.47777 -15.150391,1 -4.976651,-0.47778 -9.48318,-1.73618 -12.3125,-3.6211 -1.100693,-0.73329 -1.918618,-1.56615 -2.316406,-2.32226 l -0.152344,-0.29102 -0.472656,0.11719 0.01563,4.3457 0.01563,4.48633 0.857422,0.52344 c 5.34794,3.26768 11.337857,4.97803 18.017578,5.18164 l -0.002,0.0156 0.263672,0.006 c 0.210121,0.005 0.417705,0.0117 0.582031,0.0176 0.164326,0.006 0.299177,0.0143 0.3125,0.0156 0.07819,0.008 0.118911,0.002 0.232422,0 0.113511,-0.002 0.266894,-0.005 0.449219,-0.01 0.364648,-0.0106 0.845389,-0.027 1.357422,-0.0469 4.787197,-0.18589 8.75627,-0.77314 17.019531,-2.50976 l 0.544922,-0.11328 v -5.98242 z"
         id="path829"
         inkscape:connector-curvature="0" />
    </g>
    <g
       id="g925"
       transform="matrix(1.4641107,0,0,1.4641107,-15.46007,-121.67647)">
      <ellipse
         ry="8.0098476"
         rx="19.895426"
         cy="277.46631"
         cx="34.468182"
         id="path849-1"
         style="opacity:1;vector-effect:none;fill:#000000;fill-opacity:1;fill-rule:evenodd;stroke:none;stroke-width:0.24426207;stroke-linecap:butt;stroke-linejoin:miter;stroke-miterlimit:4;stroke-dasharray:none;stroke-dashoffset:0;stroke-opacity:1" />
      <path
         style="color:#000000;font-style:normal;font-variant:normal;font-weight:normal;font-stretch:normal;font-size:medium;line-height:normal;font-family:sans-serif;font-variant-ligatures:normal;font-variant-position:normal;font-variant-caps:normal;font-variant-numeric:normal;font-variant-alternates:normal;font-feature-settings:normal;text-indent:0;text-align:start;text-decoration:none;text-decoration-line:none;text-decoration-style:solid;text-decoration-color:#000000;letter-spacing:normal;word-spacing:normal;text-transform:none;writing-mode:lr-tb;direction:ltr;text-orientation:mixed;dominant-baseline:auto;baseline-shift:baseline;text-anchor:start;white-space:normal;shape-padding:0;clip-rule:nonzero;display:inline;overflow:visible;visibility:visible;opacity:1;isolation:auto;mix-blend-mode:normal;color-interpolation:sRGB;color-interpolation-filters:linearRGB;solid-color:#000000;solid-opacity:1;vector-effect:none;fill:#000000;fill-opacity:1;fill-rule:evenodd;stroke:none;stroke-width:0.5;stroke-linecap:butt;stroke-linejoin:miter;stroke-miterlimit:4;stroke-dasharray:none;stroke-dashoffset:0;stroke-opacity:1;color-rendering:auto;image-rendering:auto;shape-rendering:auto;text-rendering:auto;enable-background:accumulate"
         d="m 14.613578,258.92208 v 8.73074 9.09608 l 0.823722,-1.23145 c 1.37989,-2.0631 5.023666,-3.92526 9.906372,-4.94078 4.940859,-1.02763 10.419297,-1.1462 15.279688,-0.50385 4.86039,0.64236 9.103153,2.05514 11.558984,4.0287 0.553731,0.44499 1.179819,1.14408 1.484146,1.64847 l 0.618051,1.02475 5.18e-4,-7.63984 c 1.11e-4,-2.74869 -0.004,-4.43427 -0.01809,-5.43585 -0.0071,-0.50079 -0.01684,-0.82981 -0.02997,-1.04128 -0.0066,-0.10573 -0.01301,-0.18016 -0.02429,-0.24391 -0.0056,-0.0319 -0.01048,-0.0597 -0.02842,-0.10232 -0.009,-0.0213 -0.01993,-0.048 -0.05271,-0.0837 -0.03279,-0.0358 -0.105918,-0.0847 -0.19172,-0.0847 -0.04472,0 -0.05222,0.004 -0.07545,0.007 -0.02322,0.003 -0.05061,0.008 -0.08268,0.0134 -0.06414,0.0113 -0.147762,0.0275 -0.246496,0.047 -0.197472,0.0391 -0.454507,0.0924 -0.726054,0.15141 -5.066922,1.1012 -9.516507,1.82507 -13.339754,2.17145 -2.014292,0.1824 -7.066193,0.18037 -8.719881,0 -4.496444,-0.49046 -8.02714,-1.43648 -11.651485,-3.11816 -1.217972,-0.56513 -2.956309,-1.51077 -3.934644,-2.13992 z"
         id="path833"
         inkscape:connector-curvature="0" />
    </g>
  </g>
</svg>
