<?xml version="1.0" encoding="UTF-8" standalone="no"?>
<!-- Created with Inkscape (http://www.inkscape.org/) -->

<svg
   xmlns:dc="http://purl.org/dc/elements/1.1/"
   xmlns:cc="http://creativecommons.org/ns#"
   xmlns:rdf="http://www.w3.org/1999/02/22-rdf-syntax-ns#"
   xmlns:svg="http://www.w3.org/2000/svg"
   xmlns="http://www.w3.org/2000/svg"
   xmlns:sodipodi="http://sodipodi.sourceforge.net/DTD/sodipodi-0.dtd"
   xmlns:inkscape="http://www.inkscape.org/namespaces/inkscape"
   width="70mm"
   height="70mm"
   viewBox="0 0 70 70"
   version="1.1"
   id="svg872"
   inkscape:version="0.92.3 (2405546, 2018-03-11)"
   sodipodi:docname="dragon.svg">
  <defs
     id="defs866" />
  <sodipodi:namedview
     id="base"
     pagecolor="#ffffff"
     bordercolor="#666666"
     borderopacity="1.0"
     inkscape:pageopacity="0.0"
     inkscape:pageshadow="2"
     inkscape:zoom="1.4142136"
     inkscape:cx="-43.475283"
     inkscape:cy="-125.98331"
     inkscape:document-units="mm"
     inkscape:current-layer="layer1"
     showgrid="false"
     inkscape:window-width="2560"
     inkscape:window-height="1387"
     inkscape:window-x="-8"
     inkscape:window-y="-8"
     inkscape:window-maximized="1" />
  <metadata
     id="metadata869">
    <rdf:RDF>
      <cc:Work
         rdf:about="">
        <dc:format>image/svg+xml</dc:format>
        <dc:type
           rdf:resource="http://purl.org/dc/dcmitype/StillImage" />
        <dc:title></dc:title>
      </cc:Work>
    </rdf:RDF>
  </metadata>
  <g
     inkscape:label="Layer 1"
     inkscape:groupmode="layer"
     id="layer1"
     transform="translate(0,-227)">
    <path
       style="fill:none;stroke:#000000;stroke-width:2.85408807;stroke-linecap:butt;stroke-linejoin:miter;stroke-miterlimit:4;stroke-dasharray:none;stroke-opacity:1"
       d="m 41.155354,231.33061 c -6.71674,7.52498 -14.041516,14.70252 -23.094824,20.89232 l -10.320302,17.24246 30.268692,-6.7963 1.573217,-1.95078 c 18.717642,11.77815 -2.437331,28.1811 -11.775297,18.90847 l -4.145658,-1.63456 c 0.681779,1.38445 3.317728,2.9693 4.467936,4.37354 -3.446221,-0.76932 -5.640808,-2.34895 -7.362655,-3.71278 0.376099,1.51298 4.616786,4.79016 5.128688,6.95362 -7.108296,-6.72587 -6.517593,-3.42404 -8.558301,-7.20533 -0.05748,1.69266 1.688317,2.82633 6.261403,7.99193 -2.960284,-0.95811 -7.870238,-6.3902 -9.72248,-8.93587 0.314233,4.45243 2.951575,7.1665 4.625258,9.31344 1.863014,3.02318 12.531833,8.30105 19.067389,7.92902 25.326749,-1.44171 29.309086,-27.22735 19.229006,-40.31708 -6.836086,-8.87717 -14.788659,-9.84375 -19.229006,-10.15172 3.00298,-4.19381 3.384785,-8.54181 3.586934,-12.90038 z"
       id="path2600"
       inkscape:connector-curvature="0"
       sodipodi:nodetypes="ccccccccccccccsscc" />
    <path
       style="fill:none;stroke:#000000;stroke-width:2.85408807;stroke-linecap:butt;stroke-linejoin:miter;stroke-miterlimit:4;stroke-dasharray:none;stroke-opacity:1"
       d="m 27.059331,252.34879 c 1.113278,4.85305 -0.737627,8.14011 -8.495371,8.30658 2.272401,-3.32824 4.581558,-6.61974 8.495371,-8.30658 z"
       id="path2602"
       inkscape:connector-curvature="0"
       sodipodi:nodetypes="ccc" />
  </g>
</svg>
