<?xml version="1.0" encoding="UTF-8" standalone="no"?>
<!-- Created with Inkscape (http://www.inkscape.org/) -->

<svg
   xmlns:dc="http://purl.org/dc/elements/1.1/"
   xmlns:cc="http://creativecommons.org/ns#"
   xmlns:rdf="http://www.w3.org/1999/02/22-rdf-syntax-ns#"
   xmlns:svg="http://www.w3.org/2000/svg"
   xmlns="http://www.w3.org/2000/svg"
   xmlns:sodipodi="http://sodipodi.sourceforge.net/DTD/sodipodi-0.dtd"
   xmlns:inkscape="http://www.inkscape.org/namespaces/inkscape"
   width="70mm"
   height="70mm"
   viewBox="0 0 70 70"
   version="1.1"
   id="svg872"
   inkscape:version="0.92.3 (2405546, 2018-03-11)"
   sodipodi:docname="fire-filled.svg">
  <defs
     id="defs866" />
  <sodipodi:namedview
     id="base"
     pagecolor="#ffffff"
     bordercolor="#666666"
     borderopacity="1.0"
     inkscape:pageopacity="0.0"
     inkscape:pageshadow="2"
     inkscape:zoom="2"
     inkscape:cx="48.3438"
     inkscape:cy="100.0911"
     inkscape:document-units="mm"
     inkscape:current-layer="layer1"
     showgrid="false"
     inkscape:window-width="2560"
     inkscape:window-height="1387"
     inkscape:window-x="-8"
     inkscape:window-y="-8"
     inkscape:window-maximized="1" />
  <metadata
     id="metadata869">
    <rdf:RDF>
      <cc:Work
         rdf:about="">
        <dc:format>image/svg+xml</dc:format>
        <dc:type
           rdf:resource="http://purl.org/dc/dcmitype/StillImage" />
        <dc:title></dc:title>
      </cc:Work>
    </rdf:RDF>
  </metadata>
  <g
     inkscape:label="Layer 1"
     inkscape:groupmode="layer"
     id="layer1"
     transform="translate(0,-227)">
    <path
       style="fill:#000000;fill-opacity:1;stroke:#000000;stroke-width:0.30326134px;stroke-linecap:butt;stroke-linejoin:miter;stroke-opacity:1"
       d="m 37.456967,228.02482 c -3.658564,17.86982 -20.861134,19.24803 -22.755255,32.36507 l 1.920899,5.91285 -6.9447853,-5.29046 c -5.4147027,15.84977 8.0112383,29.14523 14.6283783,31.89827 4.898376,1.71292 10.320813,3.37569 18.174651,1.86723 -6.12012,-1.41233 -14.150349,-3.48115 -18.322413,-11.0477 -1.342519,-4.83091 -4.239678,-6.94948 4.432841,-25.67422 -0.206731,3.20553 -0.17949,6.65744 -0.738806,9.49167 3.085087,-4.38291 13.486439,-8.06278 16.549276,5.75725 1.464165,-3.79101 0.866552,-8.30574 0,-12.91489 4.861802,8.25605 9.42088,16.43242 5.023888,22.25096 3.41443,-0.14278 6.533694,-2.92758 9.161205,-10.11406 2.481132,-5.62464 0.623326,-12.90564 -0.443284,-19.13897 -2.228664,-5.27377 -4.169702,-6.0117 -7.240309,-8.86926 -0.786797,13.88842 -9.705172,12.24251 -12.264195,0.31119 1.676693,-3.31992 2.517837,-6.53342 1.329852,-9.18047 0,0 -1.530194,-5.03483 -2.511943,-7.62446 z"
       id="path827"
       inkscape:connector-curvature="0"
       sodipodi:nodetypes="cccccccccccccccccc" />
  </g>
</svg>
