<?xml version="1.0" encoding="UTF-8" standalone="no"?>
<!-- Created with Inkscape (http://www.inkscape.org/) -->

<svg
   xmlns:dc="http://purl.org/dc/elements/1.1/"
   xmlns:cc="http://creativecommons.org/ns#"
   xmlns:rdf="http://www.w3.org/1999/02/22-rdf-syntax-ns#"
   xmlns:svg="http://www.w3.org/2000/svg"
   xmlns="http://www.w3.org/2000/svg"
   xmlns:sodipodi="http://sodipodi.sourceforge.net/DTD/sodipodi-0.dtd"
   xmlns:inkscape="http://www.inkscape.org/namespaces/inkscape"
   width="70mm"
   height="70mm"
   viewBox="0 0 70 70"
   version="1.1"
   id="svg872"
   inkscape:version="0.92.3 (2405546, 2018-03-11)"
   sodipodi:docname="fire.svg">
  <defs
     id="defs866" />
  <sodipodi:namedview
     id="base"
     pagecolor="#ffffff"
     bordercolor="#666666"
     borderopacity="1.0"
     inkscape:pageopacity="0.0"
     inkscape:pageshadow="2"
     inkscape:zoom="2"
     inkscape:cx="136.0938"
     inkscape:cy="100.0911"
     inkscape:document-units="mm"
     inkscape:current-layer="layer1"
     showgrid="false"
     inkscape:window-width="2560"
     inkscape:window-height="1387"
     inkscape:window-x="-8"
     inkscape:window-y="-8"
     inkscape:window-maximized="1" />
  <metadata
     id="metadata869">
    <rdf:RDF>
      <cc:Work
         rdf:about="">
        <dc:format>image/svg+xml</dc:format>
        <dc:type
           rdf:resource="http://purl.org/dc/dcmitype/StillImage" />
        <dc:title></dc:title>
      </cc:Work>
    </rdf:RDF>
  </metadata>
  <g
     inkscape:label="Layer 1"
     inkscape:groupmode="layer"
     id="layer1"
     transform="translate(0,-227)">
    <path
       style="fill:none;stroke:#000000;stroke-width:3;stroke-linecap:butt;stroke-linejoin:miter;stroke-miterlimit:4;stroke-dasharray:none;stroke-opacity:1"
       d="m 36.843229,234.95521 c 1.278622,3.75488 5.194045,5.24595 2.248958,15.0151 -0.580865,3.19477 0.350384,5.38146 1.322917,7.54063 3.368439,2.27877 5.653476,1.46211 7.805208,0.26458 l -1.058334,-9.39271 c 20.924278,17.15679 8.093059,32.85429 -1.389062,36.5125 1.804334,-13.57149 0.661406,-17.8993 -1.389062,-19.38073 0.167349,0.15614 -1.560324,6.15641 -3.571876,9.6573 -1.76975,-5.54146 -1.840351,-7.15124 -3.63802,-8.26823 -3.522194,-1.28254 -6.440027,0.80484 -8.334375,3.30729 l -2.116666,-6.21771 -2.050521,7.80521 c -2.266408,6.57802 1.712168,10.7517 4.43177,15.61041 l 10.847917,5.75469 -8.73125,0.46302 c -5.998978,-0.31339 -10.602581,-2.28929 -12.898437,-5.95312 -7.406467,-8.34519 -5.641852,-10.12849 -7.540625,-15.87501 -0.400989,-1.3927 -2.7022503,-8.3321 2.910417,-13.09687 l 3.737141,7.50699 c 0,0 2.203735,-7.10059 4.134212,-9.88824 1.694,-2.07754 8.698715,-7.98074 11.773959,-10.12031 3.471272,-4.57065 2.353695,-7.50243 3.505729,-11.24479 z"
       id="path2790"
       inkscape:connector-curvature="0"
       sodipodi:nodetypes="cccccccccccccccccccccc" />
  </g>
</svg>
