<?xml version="1.0" encoding="UTF-8" standalone="no"?>
<!-- Created with Inkscape (http://www.inkscape.org/) -->

<svg
   xmlns:dc="http://purl.org/dc/elements/1.1/"
   xmlns:cc="http://creativecommons.org/ns#"
   xmlns:rdf="http://www.w3.org/1999/02/22-rdf-syntax-ns#"
   xmlns:svg="http://www.w3.org/2000/svg"
   xmlns="http://www.w3.org/2000/svg"
   xmlns:sodipodi="http://sodipodi.sourceforge.net/DTD/sodipodi-0.dtd"
   xmlns:inkscape="http://www.inkscape.org/namespaces/inkscape"
   width="70mm"
   height="70mm"
   viewBox="0 0 70 70"
   version="1.1"
   id="svg4972"
   inkscape:version="0.92.3 (2405546, 2018-03-11)"
   sodipodi:docname="Flying.svg">
  <defs
     id="defs4966" />
  <sodipodi:namedview
     id="base"
     pagecolor="#ffffff"
     bordercolor="#666666"
     borderopacity="1.0"
     inkscape:pageopacity="0.0"
     inkscape:pageshadow="2"
     inkscape:zoom="3.959798"
     inkscape:cx="163.48499"
     inkscape:cy="128.18453"
     inkscape:document-units="mm"
     inkscape:current-layer="layer1"
     showgrid="false"
     inkscape:window-width="2560"
     inkscape:window-height="1387"
     inkscape:window-x="-8"
     inkscape:window-y="-8"
     inkscape:window-maximized="1" />
  <metadata
     id="metadata4969">
    <rdf:RDF>
      <cc:Work
         rdf:about="">
        <dc:format>image/svg+xml</dc:format>
        <dc:type
           rdf:resource="http://purl.org/dc/dcmitype/StillImage" />
        <dc:title />
      </cc:Work>
    </rdf:RDF>
  </metadata>
  <g
     inkscape:label="Layer 1"
     inkscape:groupmode="layer"
     id="layer1"
     transform="translate(0,-227)">
    <path
       style="fill:none;stroke:#000000;stroke-width:3;stroke-linecap:butt;stroke-linejoin:miter;stroke-miterlimit:4;stroke-dasharray:none;stroke-opacity:1"
       d="m 2.6726951,270.74077 c 0.034705,2.0454 0.2980646,12.02226 10.2230589,17.43934 4.907692,2.98547 8.60451,3.29126 11.425773,3.20723 1.822605,-0.14476 2.353337,0.11845 5.679478,-0.50111 8.129308,-2.16849 11.413314,-6.87944 14.298917,-10.65737 -3.635772,1.54484 -8.671121,2.48295 -12.160761,2.33861 -0.304259,-1.29897 -0.08198,-1.54486 -0.06682,-2.20498 10.03052,-2.70279 18.019149,-8.49132 19.510677,-11.15851 -6.013266,2.1833 -12.942376,4.0049 -19.844762,4.40996 -0.317825,-1.79169 -0.06484,-1.58557 -0.06682,-2.27179 16.793487,-4.84746 24.458706,-9.6355 26.994222,-15.50164 -7.578787,3.46989 -16.297303,5.48363 -26.726954,6.81537 -0.46706,-1.29834 -0.145938,-1.54578 -0.133635,-2.20497 17.188845,-5.69021 28.638573,-13.26708 33.475508,-23.31928 -21.682912,14.45344 -63.2334277,8.19848 -62.6078819,33.60914 z"
       id="path824"
       inkscape:connector-curvature="0"
       sodipodi:nodetypes="ccccccccccccccc" />
  </g>
</svg>
