<?xml version="1.0" encoding="UTF-8" standalone="no"?>
<!-- Created with Inkscape (http://www.inkscape.org/) -->

<svg
   xmlns:dc="http://purl.org/dc/elements/1.1/"
   xmlns:cc="http://creativecommons.org/ns#"
   xmlns:rdf="http://www.w3.org/1999/02/22-rdf-syntax-ns#"
   xmlns:svg="http://www.w3.org/2000/svg"
   xmlns="http://www.w3.org/2000/svg"
   xmlns:sodipodi="http://sodipodi.sourceforge.net/DTD/sodipodi-0.dtd"
   xmlns:inkscape="http://www.inkscape.org/namespaces/inkscape"
   width="70mm"
   height="70mm"
   viewBox="0 0 70 70"
   version="1.1"
   id="svg872"
   inkscape:version="0.92.3 (2405546, 2018-03-11)"
   sodipodi:docname="ghost-filled.svg">
  <defs
     id="defs866" />
  <sodipodi:namedview
     id="base"
     pagecolor="#ffffff"
     bordercolor="#666666"
     borderopacity="1.0"
     inkscape:pageopacity="0.0"
     inkscape:pageshadow="2"
     inkscape:zoom="2.8284271"
     inkscape:cx="-54.429755"
     inkscape:cy="104.44478"
     inkscape:document-units="mm"
     inkscape:current-layer="layer1"
     showgrid="false"
     inkscape:window-width="2560"
     inkscape:window-height="1387"
     inkscape:window-x="-8"
     inkscape:window-y="-8"
     inkscape:window-maximized="1" />
  <metadata
     id="metadata869">
    <rdf:RDF>
      <cc:Work
         rdf:about="">
        <dc:format>image/svg+xml</dc:format>
        <dc:type
           rdf:resource="http://purl.org/dc/dcmitype/StillImage" />
        <dc:title />
      </cc:Work>
    </rdf:RDF>
  </metadata>
  <g
     inkscape:label="Layer 1"
     inkscape:groupmode="layer"
     id="layer1"
     transform="translate(0,-227)">
    <path
       style="color:#000000;font-style:normal;font-variant:normal;font-weight:normal;font-stretch:normal;font-size:medium;line-height:normal;font-family:sans-serif;font-variant-ligatures:normal;font-variant-position:normal;font-variant-caps:normal;font-variant-numeric:normal;font-variant-alternates:normal;font-feature-settings:normal;text-indent:0;text-align:start;text-decoration:none;text-decoration-line:none;text-decoration-style:solid;text-decoration-color:#000000;letter-spacing:normal;word-spacing:normal;text-transform:none;writing-mode:lr-tb;direction:ltr;text-orientation:mixed;dominant-baseline:auto;baseline-shift:baseline;text-anchor:start;white-space:normal;shape-padding:0;clip-rule:nonzero;display:inline;overflow:visible;visibility:visible;opacity:1;isolation:auto;mix-blend-mode:normal;color-interpolation:sRGB;color-interpolation-filters:linearRGB;solid-color:#000000;solid-opacity:1;vector-effect:none;fill:#000000;fill-opacity:1;fill-rule:nonzero;stroke:none;stroke-width:11.33858299;stroke-linecap:butt;stroke-linejoin:miter;stroke-miterlimit:4;stroke-dasharray:none;stroke-dashoffset:0;stroke-opacity:1;color-rendering:auto;image-rendering:auto;shape-rendering:auto;text-rendering:auto;enable-background:accumulate"
       d="M 132.01758 14.117188 L 132.01758 14.119141 C 118.79101 14.034101 107.08586 15.665387 98.353516 17.939453 C 49.112602 28.944001 17.226686 73.663637 14.994141 121.62891 C 12.759784 169.63303 40.788711 221.14683 108.77344 245.16406 L 109.2168 245.32031 L 109.67773 245.40234 C 135.82366 250.0111 161.1418 251.91728 185.52539 250.78516 L 185.66406 250.77734 L 185.80469 250.76172 C 203.93604 249.0175 220.05231 245.51366 233.77734 239.73828 L 244.47852 235.23633 L 234.3457 229.56641 C 228.98925 226.56943 224.68331 223.38411 221.91211 220.1875 C 219.62724 217.55188 218.39578 215.04237 217.99219 212.22852 C 237.47423 189.04822 247.34366 163.91435 250.29102 137.92383 L 250.33789 137.51172 L 250.32422 137.09766 C 248.6991 88.122762 231.15101 56.857826 207.74609 38.400391 C 184.34118 19.942954 155.70786 14.269653 132.01758 14.117188 z M 176.36719 99.019531 C 178.1779 102.14705 179.95783 105.91948 180.81836 109.79297 C 182.42617 117.03012 181.86781 123.33394 174.35938 128.64062 C 166.06634 133.47967 160.11359 133.00353 154.66211 129.5332 C 150.5951 126.94419 146.81667 122.13038 144 115.66992 C 152.68652 115.8245 158.71301 115.22536 164.04688 112.27344 C 169.0222 109.51994 172.52119 104.81483 176.36719 99.019531 z M 85.662109 99.777344 C 89.345607 106.04505 92.675492 110.49558 97.943359 113.26562 C 103.24767 116.05488 109.13741 116.43031 117.31836 115.90234 C 114.93154 121.59889 111.565 126.41589 107.75391 129.23047 C 102.37473 133.20305 96.743017 134.22208 88.632812 129.48633 C 80.673918 123.87411 79.129587 118.1489 80.03125 111.94727 C 80.633064 107.80796 82.811514 103.50691 85.662109 99.777344 z "
       transform="matrix(0.26458333,0,0,0.26458333,0,227)"
       id="path826" />
  </g>
</svg>
