<?xml version="1.0" encoding="UTF-8" standalone="no"?>
<!-- Created with Inkscape (http://www.inkscape.org/) -->

<svg
   xmlns:dc="http://purl.org/dc/elements/1.1/"
   xmlns:cc="http://creativecommons.org/ns#"
   xmlns:rdf="http://www.w3.org/1999/02/22-rdf-syntax-ns#"
   xmlns:svg="http://www.w3.org/2000/svg"
   xmlns="http://www.w3.org/2000/svg"
   xmlns:sodipodi="http://sodipodi.sourceforge.net/DTD/sodipodi-0.dtd"
   xmlns:inkscape="http://www.inkscape.org/namespaces/inkscape"
   width="70mm"
   height="70mm"
   viewBox="0 0 70 70"
   version="1.1"
   id="svg5010"
   inkscape:version="0.92.3 (2405546, 2018-03-11)"
   sodipodi:docname="Poison.svg">
  <defs
     id="defs5004">
    <inkscape:path-effect
       effect="mirror_symmetry"
       start_point="34.43677,232.29734"
       end_point="34.43677,291.32784"
       center_point="34.43677,261.81259"
       id="path-effect5594"
       is_visible="true"
       mode="free"
       discard_orig_path="false"
       fuse_paths="true"
       oposite_fuse="false" />
  </defs>
  <sodipodi:namedview
     id="base"
     pagecolor="#ffffff"
     bordercolor="#666666"
     borderopacity="1.0"
     inkscape:pageopacity="0.0"
     inkscape:pageshadow="2"
     inkscape:zoom="1.4"
     inkscape:cx="206.64516"
     inkscape:cy="108.09629"
     inkscape:document-units="mm"
     inkscape:current-layer="layer1"
     showgrid="false"
     inkscape:snap-smooth-nodes="false"
     inkscape:window-width="2560"
     inkscape:window-height="1387"
     inkscape:window-x="-8"
     inkscape:window-y="-8"
     inkscape:window-maximized="1"
     units="mm"
     width="200mm" />
  <metadata
     id="metadata5007">
    <rdf:RDF>
      <cc:Work
         rdf:about="">
        <dc:format>image/svg+xml</dc:format>
        <dc:type
           rdf:resource="http://purl.org/dc/dcmitype/StillImage" />
        <dc:title></dc:title>
      </cc:Work>
    </rdf:RDF>
  </metadata>
  <g
     inkscape:label="Layer 1"
     inkscape:groupmode="layer"
     id="layer1"
     transform="translate(0,-227)">
    <path
       style="fill:none;stroke:#000000;stroke-width:3;stroke-linecap:butt;stroke-linejoin:miter;stroke-miterlimit:4;stroke-dasharray:none;stroke-opacity:1"
       d="m 34.422411,232.29734 c -16.822605,0.82043 -28.9714393,9.65988 -30.8925541,23.19709 -0.1910889,4.56774 -0.5486919,12.94142 9.6217001,22.04974 -0.676726,1.77895 -0.7932,3.74464 -0.400904,5.87993 1.170167,2.78225 1.608991,6.77338 7.951267,7.78422 2.839459,-0.28263 4.007417,-0.91111 6.748557,-3.54132 1.80899,2.05658 3.898543,3.70578 6.414468,3.64155 0.192323,0.0133 0.382938,0.0197 0.571825,0.0193 0.188887,4.7e-4 0.379502,-0.006 0.571825,-0.0193 2.515925,0.0642 4.605478,-1.58497 6.414468,-3.64155 2.74114,2.63021 3.909098,3.25869 6.748557,3.54132 6.342276,-1.01084 6.7811,-5.00197 7.951267,-7.78422 0.392296,-2.13529 0.275822,-4.10098 -0.400904,-5.87993 10.170392,-9.10832 9.812789,-17.482 9.6217,-22.04974 -1.921115,-13.53721 -14.069949,-22.37666 -30.892554,-23.19709 -0.0048,1.6e-4 -0.0096,3.2e-4 -0.01436,4.8e-4 -0.0048,-1.6e-4 -0.0096,-3.2e-4 -0.01436,-4.8e-4 z"
       id="path5025"
       inkscape:connector-curvature="0"
       sodipodi:nodetypes="ccccccccccccc"
       inkscape:path-effect="#path-effect5594"
       inkscape:original-d="m 34.422411,232.29734 c -16.822605,0.82043 -28.9714393,9.65988 -30.8925541,23.19709 -0.1910889,4.56774 -0.5486919,12.94142 9.6217001,22.04974 -0.676726,1.77895 -0.7932,3.74464 -0.400904,5.87993 1.170167,2.78225 1.608991,6.77338 7.951267,7.78422 2.839459,-0.28263 4.007417,-0.91111 6.748557,-3.54132 1.80899,2.05658 3.898543,3.70578 6.414468,3.64155 2.662979,0.18386 4.998641,-0.94155 6.949009,-3.60814 2.52007,2.99178 4.78362,3.67488 6.949006,3.4745 3.149792,-0.41117 6.139746,-1.50165 7.88445,-7.88445 0.307342,-3.0385 -0.04897,-3.65297 -0.534537,-5.87993 11.945382,-12.34209 9.381639,-14.40031 8.921103,-23.26055 -2.541168,-12.35565 -15.181305,-21.37301 -29.611565,-21.85264 z" />
    <ellipse
       style="fill:none;fill-opacity:1;stroke:#000000;stroke-width:3;stroke-miterlimit:4;stroke-dasharray:none;stroke-opacity:1"
       id="path5032"
       cx="34.112343"
       cy="258.48422"
       rx="19.064175"
       ry="14.457588" />
  </g>
</svg>
