<?xml version="1.0" encoding="UTF-8" standalone="no"?>
<!-- Created with Inkscape (http://www.inkscape.org/) -->

<svg
   xmlns:dc="http://purl.org/dc/elements/1.1/"
   xmlns:cc="http://creativecommons.org/ns#"
   xmlns:rdf="http://www.w3.org/1999/02/22-rdf-syntax-ns#"
   xmlns:svg="http://www.w3.org/2000/svg"
   xmlns="http://www.w3.org/2000/svg"
   xmlns:sodipodi="http://sodipodi.sourceforge.net/DTD/sodipodi-0.dtd"
   xmlns:inkscape="http://www.inkscape.org/namespaces/inkscape"
   width="70mm"
   height="70mm"
   viewBox="0 0 70 70"
   version="1.1"
   id="svg872"
   inkscape:version="0.92.3 (2405546, 2018-03-11)"
   sodipodi:docname="weather_partlycloudynight.svg">
  <defs
     id="defs866" />
  <sodipodi:namedview
     id="base"
     pagecolor="#ffffff"
     bordercolor="#666666"
     borderopacity="1.0"
     inkscape:pageopacity="0.0"
     inkscape:pageshadow="2"
     inkscape:zoom="3.6203867"
     inkscape:cx="141.83113"
     inkscape:cy="208.94828"
     inkscape:document-units="mm"
     inkscape:current-layer="layer1"
     showgrid="false"
     inkscape:window-width="2560"
     inkscape:window-height="1387"
     inkscape:window-x="-8"
     inkscape:window-y="-8"
     inkscape:window-maximized="1" />
  <metadata
     id="metadata869">
    <rdf:RDF>
      <cc:Work
         rdf:about="">
        <dc:format>image/svg+xml</dc:format>
        <dc:type
           rdf:resource="http://purl.org/dc/dcmitype/StillImage" />
        <dc:title></dc:title>
      </cc:Work>
    </rdf:RDF>
  </metadata>
  <g
     inkscape:label="Layer 1"
     inkscape:groupmode="layer"
     id="layer1"
     transform="translate(0,-227)">
    <path
       style="fill:none;stroke:#000000;stroke-width:2.71099997;stroke-linecap:butt;stroke-linejoin:miter;stroke-miterlimit:4;stroke-dasharray:none;stroke-opacity:1"
       d="M 51.168749,282.50063 H 10.009244 c -6.1621164,-6.44322 -1.9920122,-13.29165 4.303039,-14.1252 -0.717173,-2.86535 -0.252964,-9.01198 1.122532,-11.22532 2.721192,-5.37587 11.692266,-7.92597 19.814415,-0.30021 5.86821,-1.67062 9.650663,-0.19074 11.924461,2.3374 2.273798,2.52814 4.640909,6.31123 2.872526,8.62691 6.657939,4.11 10.284903,8.59887 1.122532,14.68641 z"
       id="path1681"
       inkscape:connector-curvature="0"
       sodipodi:nodetypes="cccccsccc" />
    <path
       style="fill:none;stroke:#000000;stroke-width:2.71099997;stroke-linecap:butt;stroke-linejoin:miter;stroke-miterlimit:4;stroke-dasharray:none;stroke-opacity:1"
       d="m 51.221415,267.46027 c 1.176078,-0.44836 2.323064,-1.0202 3.411643,-1.69551 2.177159,-1.35062 4.120691,-3.11511 5.59608,-5.1334 -3.482682,1.49574 -6.685394,1.76672 -9.411063,1.12794 -0.681417,-0.1597 -1.333019,-0.37625 -1.951726,-0.64475 m -4.52399,-3.83209 c -0.393627,-0.53583 -0.818203,-0.96268 -1.124485,-1.56794 -0.306283,-0.60526 -0.567354,-1.24277 -0.780133,-1.90762 -0.42556,-1.32968 -0.657956,-2.76869 -0.672553,-4.27765 -0.0292,-3.01792 0.812802,-6.31563 2.723066,-9.57815 -4.657423,1.79899 -7.925752,5.67289 -9.573762,9.96914 -0.412002,1.07406 -0.722733,2.17452 -0.928582,3.27555 -0.102924,0.55052 -0.179627,1.10118 -0.229658,1.64875"
       id="path864"
       inkscape:connector-curvature="0"
       sodipodi:nodetypes="cscsccssscssc" />
  </g>
</svg>
