<svg xmlns="http://www.w3.org/2000/svg" width="70mm" height="70mm" viewBox="0 0 70 70"><g stroke="#000"><path d="M50.006 34.546a14.552 14.552 0 0 1-14.552 14.552 14.552 14.552 0 0 1-14.552-14.552 14.552 14.552 0 0 1 14.552-14.552 14.552 14.552 0 0 1 14.552 14.552z" fill="none" stroke-width="2.771"/><path d="M15.341 35.061H4.631zM66.057 35.061h-10.71zM35.476 4.14v10.711zM35.476 54.142v10.71z" fill="none" stroke-width="3.226"/><path d="M12.088 13.363l7.574 7.573zM51.412 49.974l7.574 7.574zM59.217 13.098l-7.574 7.574zM19.86 49.28l-7.573 7.574z" stroke-width="3.226"/></g></svg>