<svg xmlns="http://www.w3.org/2000/svg" width="70mm" height="70mm" viewBox="0 0 70 70"><defs><meshgradient id="b" gradientUnits="userSpaceOnUse" gradientTransform="scale(.05052) rotate(45 -5774.15 2496.402)" x="9.194" y="238.529"><meshrow><meshpatch><stop path="c 0,0 0,0 0,0" stop-color="#fff"/><stop path="c 0,3.57027 0,7.14055 0,10.7108" stop-color="purple"/><stop path="c 0,0 0,0 0,0" stop-color="#fff"/><stop path="c 0,-3.57027 0,-7.14055 0,-10.7108" stop-color="purple"/></meshpatch></meshrow></meshgradient></defs><g stroke="#000" stroke-width="2.711"><path d="M35.136 28.679c0-5.8 4.702-10.502 10.502-10.502 5.8 0 10.707 4.444 10.707 10.243 0 2.9-1.175 5.525-3.075 7.426-.95.95-2.082 1.719-3.338 2.25M63.718 28.886H55.99zM46.609 9.753v7.729z" fill="none"/><path d="M32.725 241.63l5.465 5.466z" fill="url(#a)" transform="translate(0 -227)"/><path d="M59.53 242.656l-5.464 5.465z" fill="url(#b)" transform="translate(0 -227)"/><path d="M51.169 55.5h-41.16c-6.162-6.443-1.992-13.291 4.303-14.125-.717-2.865-.253-9.012 1.123-11.225 2.721-5.376 11.692-7.926 19.814-.3 5.868-1.67 9.65-.19 11.925 2.337 2.273 2.528 4.64 6.312 2.872 8.627 6.658 4.11 10.285 8.6 1.123 14.687z" fill="none"/><path d="M54.33 262.275l5.465 5.466z" fill="url(#c)" transform="translate(0 -227)"/></g></svg>