<?xml version="1.0" encoding="UTF-8"?>
<svg width="70mm" height="70mm" version="1.1" viewBox="0 0 70 70" xmlns="http://www.w3.org/2000/svg">
 <g transform="translate(0,-227)" stroke="#000">
  <g fill="none" stroke-width="2.711">
   <path d="m43.261 252.9c2.3574 0.9971 4.4804 2.4399 6.2633 4.2228 3.5658 3.5658 5.7713 8.4919 5.7713 13.933 2e-6 10.882-8.822 19.704-19.704 19.704s-19.704-8.822-19.704-19.704c1e-6 -5.4412 2.2055-10.367 5.7713-13.933 1.7829-1.7829 3.9059-3.2257 6.2633-4.2228"/>
   <circle cx="34.787" cy="244.53" r="11.401"/>
   <path d="m25.011 263.75-12.532-9.6118z"/>
   <path d="m44.78 263.75 12.532-9.6118z"/>
   <path d="m29.872 248.11c2.8404 1.1072 7.148 1.0875 9.8843 0"/>
  </g>
  <ellipse cx="35.455" cy="267.4" rx=".9682" ry=".89905" fill-rule="evenodd" stroke-width="2.9025"/>
  <ellipse cx="35.373" cy="277.93" rx=".9682" ry=".89905" fill-rule="evenodd" stroke-width="2.9025"/>
 </g>
</svg>
